<svg xmlns="http://www.w3.org/2000/svg" viewBox="-1334 880 97.707 36">
  <defs>
    <style>
      .cls-1, .cls-2 {
        fill: #fff;
      }

      .cls-2 {
        font-size: 6px;
        font-family: Lato-Regular, Lato;
      }

      .cls-3 {
        fill: none;
      }
    </style>
  </defs>
  <g id="Group_2486" data-name="Group 2486" transform="translate(-2590.82 531.682)">
    <g id="Group_354" data-name="Group 354" transform="translate(1292.82 359.941)">
      <path id="Path_376" data-name="Path 376" class="cls-1" d="M118.5,44.722h1.784v7.2H118.5a.291.291,0,0,0-.308.308v2.215h6.767V52.228a.291.291,0,0,0-.308-.308h-1.784v-7.2h1.784a.291.291,0,0,0,.308-.308V42.2h-6.767v2.215C118.131,44.538,118.315,44.722,118.5,44.722Z" transform="translate(-103.305 -42.2)"/>
      <path id="Path_377" data-name="Path 377" class="cls-1" d="M138.052,42.2H136.7a3.177,3.177,0,0,0-3.2,3.2v8.736a.291.291,0,0,0,.308.308h4.183a5.889,5.889,0,0,0,6.029-6.09A5.817,5.817,0,0,0,138.052,42.2Zm.062,9.474h-1.538a.291.291,0,0,1-.308-.308V46.076a1.1,1.1,0,0,1,1.107-1.107h.738a3.136,3.136,0,0,1,3.26,3.322A3.189,3.189,0,0,1,138.114,51.674Z" transform="translate(-109.2 -42.2)"/>
      <path id="Path_378" data-name="Path 378" class="cls-1" d="M184.852,43.994a6.084,6.084,0,0,0-4.329-1.794,6.239,6.239,0,0,0-4.329,1.794h0a6.122,6.122,0,0,0,0,8.658,5.98,5.98,0,0,0,4.329,1.794,5.879,5.879,0,0,0,4.329-1.794,6.084,6.084,0,0,0,1.794-4.329A6.191,6.191,0,0,0,184.852,43.994ZM183,50.858a3.5,3.5,0,1,1-4.948-4.948,3.329,3.329,0,0,1,2.412-1.051,3.467,3.467,0,0,1,2.474,1.051,3.406,3.406,0,0,1,.99,2.474A3.123,3.123,0,0,1,183,50.858Z" transform="translate(-124.939 -42.2)"/>
      <path id="Path_379" data-name="Path 379" class="cls-1" d="M103.1,43.774l-2.522,6.706L98.06,43.835A2.414,2.414,0,0,0,95.784,42.3H94l4.368,10.827a2.268,2.268,0,0,0,2.092,1.415h.062a2.207,2.207,0,0,0,2.092-1.415L106.981,42.3H105.2A2.267,2.267,0,0,0,103.1,43.774Z" transform="translate(-94 -42.293)"/>
      <path id="Path_380" data-name="Path 380" class="cls-1" d="M158.521,42.2h0a2.29,2.29,0,0,0-2.153,1.415L152,54.442h1.784A2.333,2.333,0,0,0,156,52.9l2.522-6.706,2.522,6.644a2.414,2.414,0,0,0,2.276,1.538H165.1l-4.491-10.766A2.269,2.269,0,0,0,158.521,42.2Z" transform="translate(-116.319 -42.2)"/>
    </g>
    <text id="Connect" class="cls-2" transform="translate(1354.32 377.952)"><tspan x="-22.302" y="0">Connect</tspan></text>
    <g id="ic_store_mall_directory_24px" transform="translate(1256.82 348.318)">
      <path id="Path_70" data-name="Path 70" class="cls-3" d="M0,0H36V36H0Z"/>
      <g id="Group_2010" data-name="Group 2010" transform="translate(2.872 3.037)">
        <path id="Subtraction_11" data-name="Subtraction 11" class="cls-1" d="M6.769,25.006h0A13.376,13.376,0,0,1,13.181,0,13.1,13.1,0,0,1,25.018,7.48H22.7A11.119,11.119,0,1,0,6.769,22.266v2.74Z" transform="translate(0 0)"/>
        <g id="Group_2045" data-name="Group 2045" transform="translate(6.955 8.588)">
          <path id="Union_2" data-name="Union 2" class="cls-1" d="M1.276,20.388V13.722a3.028,3.028,0,0,0,.891.153,2.554,2.554,0,0,0,1.685-.636v4.8h7.7V13a2.491,2.491,0,0,0,1.926.877,2.862,2.862,0,0,0,.626-.066v6.578Zm17.981-.022V13.239a2.554,2.554,0,0,0,1.685.636,3.026,3.026,0,0,0,.891-.153v6.644ZM1.276,12.806a.877.877,0,0,0-.265-.12H.987A2.428,2.428,0,0,1,.53,12.3l-.024-.024c-.048-.072-.12-.169-.168-.241a1.257,1.257,0,0,1-.144-.241c0-.024-.024-.024-.024-.048-.024-.1-.072-.169-.1-.265v-.024c-.024-.1-.024-.168-.048-.265v-.072A1.176,1.176,0,0,1,0,10.832V8.184L1.276,1.757H21.832l1.276,6.427v2.648a.361.361,0,0,1-.048.24v.072a1.009,1.009,0,0,1-.048.265v.024a1.168,1.168,0,0,1-.1.265c0,.024-.024.024-.024.048a2.061,2.061,0,0,1-.144.24.852.852,0,0,1-.168.241l-.024.024a2.268,2.268,0,0,1-.458.385h-.024c-.1.048-.168.1-.265.145a2.277,2.277,0,0,1-.891.192,2.2,2.2,0,0,1-1.685-.818,1,1,0,0,0-.12-.169,2.167,2.167,0,0,1-3.731-.216l-.144.216c-.024.024-.024.048-.048.072-.048.048-.072.1-.12.144,0,.024-.024.048-.048.072a.567.567,0,0,1-.168.168l-.072.072a.423.423,0,0,1-.12.1c-.048.024-.072.048-.12.072-.024.024-.072.024-.1.048a.525.525,0,0,1-.12.072,2.388,2.388,0,0,1-.843.168,2.167,2.167,0,0,1-1.926-1.179,2.161,2.161,0,0,1-3.851,0,2.168,2.168,0,0,1-3.731.217,1.043,1.043,0,0,1-.12.168A2.122,2.122,0,0,1,2.167,13,2.278,2.278,0,0,1,1.276,12.806Zm0-11.6V0H21.808V1.2Z" transform="translate(0 0)"/>
        </g>
      </g>
    </g>
  </g>
</svg>
